<svg width="38" height="39" viewBox="0 0 38 39" fill="none" xmlns="http://www.w3.org/2000/svg">
<path d="M31.5 11.6875H17.4375M22.125 27.3125H8.0625" stroke="black" stroke-width="3.75" stroke-linecap="round" stroke-linejoin="round"/>
<path d="M26.8125 32C29.4013 32 31.5 29.9013 31.5 27.3125C31.5 24.7237 29.4013 22.625 26.8125 22.625C24.2237 22.625 22.125 24.7237 22.125 27.3125C22.125 29.9013 24.2237 32 26.8125 32Z" stroke="black" stroke-width="3.75" stroke-linecap="round" stroke-linejoin="round"/>
<path d="M11.1875 16.375C13.7763 16.375 15.875 14.2763 15.875 11.6875C15.875 9.09867 13.7763 7 11.1875 7C8.59867 7 6.5 9.09867 6.5 11.6875C6.5 14.2763 8.59867 16.375 11.1875 16.375Z" stroke="black" stroke-width="3.75" stroke-linecap="round" stroke-linejoin="round"/>
</svg>
