<svg width="32" height="25" viewBox="0 0 32 25" fill="none" xmlns="http://www.w3.org/2000/svg">
<path d="M6.65625 0.457813C6.94785 0.164889 7.34328 0.000333786 7.7556 0.000333786C8.16791 0.000333786 8.56335 0.164889 8.85494 0.457813L15.0747 6.70781C15.3579 7.0025 15.5147 7.39719 15.5111 7.80688C15.5076 8.21656 15.3441 8.60845 15.0558 8.89815C14.7675 9.18785 14.3775 9.35218 13.9698 9.35574C13.5621 9.3593 13.1693 9.20181 12.876 8.91719L9.31054 5.33438V23.4375C9.31054 23.8519 9.14671 24.2493 8.85511 24.5424C8.5635 24.8354 8.16799 25 7.7556 25C7.3432 25 6.9477 24.8354 6.65609 24.5424C6.36448 24.2493 6.20066 23.8519 6.20066 23.4375V5.33438L2.63518 8.91719C2.34191 9.20181 1.94913 9.3593 1.54143 9.35574C1.13373 9.35218 0.74373 9.18785 0.455432 8.89815C0.167133 8.60845 0.00360159 8.21656 5.87809e-05 7.80688C-0.00348403 7.39719 0.153245 7.0025 0.43649 6.70781L6.65625 0.457813ZM21.7501 19.6656V1.5625C21.7501 1.1481 21.9139 0.750672 22.2055 0.457646C22.4971 0.16462 22.8926 0 23.305 0C23.7174 0 24.1129 0.16462 24.4045 0.457646C24.6961 0.750672 24.8599 1.1481 24.8599 1.5625V19.6656L28.4254 16.0828C28.7187 15.7982 29.1115 15.6407 29.5192 15.6443C29.9269 15.6478 30.3169 15.8121 30.6052 16.1018C30.8935 16.3915 31.057 16.7834 31.0605 17.1931C31.0641 17.6028 30.9074 17.9975 30.6241 18.2922L24.4044 24.5422C24.1128 24.8351 23.7173 24.9997 23.305 24.9997C22.8927 24.9997 22.4973 24.8351 22.2057 24.5422L15.9859 18.2922C15.7027 17.9975 15.5459 17.6028 15.5495 17.1931C15.553 16.7834 15.7165 16.3915 16.0048 16.1018C16.2931 15.8121 16.6831 15.6478 17.0908 15.6443C17.4985 15.6407 17.8913 15.7982 18.1846 16.0828L21.7501 19.6656Z" fill="black"/>
</svg>
